<svg width="228" height="27" viewBox="0 0 228 27" fill="none" xmlns="http://www.w3.org/2000/svg">
<path d="M12.1484 26.1406C8.25781 26.1406 5.26953 25.0918 3.18359 22.9941C1.10938 20.8965 0.0722656 17.6914 0.0722656 13.3789C0.0722656 9.05469 1.15625 5.85547 3.32422 3.78125C5.50391 1.69531 8.76758 0.652344 13.1152 0.652344H17.0352C19.625 0.652344 21.957 1.27344 24.0312 2.51562C26.1172 3.74609 27.1602 5.28711 27.1602 7.13867C27.1602 7.83008 26.9551 8.32812 26.5449 8.63281C26.1348 8.92578 25.7363 9.07227 25.3496 9.07227H23.2578C22.25 9.07227 21.4473 8.49805 20.8496 7.34961C20.252 6.20117 18.7754 5.62695 16.4199 5.62695H13.291C10.7246 5.62695 8.98438 6.17773 8.07031 7.2793C7.15625 8.38086 6.69922 10.4082 6.69922 13.3613C6.69922 16.3145 7.10938 18.3594 7.92969 19.4961C8.75 20.6211 10.2148 21.1836 12.3242 21.1836H15.9277C17.8145 21.1836 19.1621 20.8262 19.9707 20.1113C20.7793 19.3848 21.1953 18.3477 21.2188 17H17.2461C16.7891 17 16.3965 16.8418 16.0684 16.5254C15.752 16.1973 15.5938 15.8047 15.5938 15.3477V13.9766C15.5938 13.5195 15.752 13.1328 16.0684 12.8164C16.3965 12.4883 16.7891 12.3242 17.2461 12.3242H26.0703C26.5273 12.3242 26.9141 12.4883 27.2305 12.8164C27.5586 13.1328 27.7227 13.5195 27.7227 13.9766V15.9277C27.7227 19.209 26.7383 21.7344 24.7695 23.5039C22.8008 25.2617 19.9121 26.1406 16.1035 26.1406H12.1484ZM57.5 25.2441C57.5 25.748 57.2012 26 56.6035 26H52.3848C51.9395 26 51.4473 25.8418 50.9082 25.5254C50.3809 25.1973 49.9766 24.8047 49.6953 24.3477L46.707 19.6719C45.4766 17.75 43.9883 16.7891 42.2422 16.7891H37.9531V24.3477C37.9531 24.8047 37.7891 25.1973 37.4609 25.5254C37.1445 25.8418 36.7578 26 36.3008 26H32.9961C32.5391 26 32.1465 25.8418 31.8184 25.5254C31.4902 25.1973 31.3262 24.8047 31.3262 24.3477V2.46289C31.3262 2.00586 31.4844 1.61328 31.8008 1.28516C32.1172 0.957031 32.5039 0.792969 32.9609 0.792969H47.4629C50.1465 0.792969 52.3438 1.51367 54.0547 2.95508C55.7773 4.39648 56.6387 6.3418 56.6387 8.79102C56.6387 12.2012 54.4297 14.3398 50.0117 15.207C50.7148 15.4648 51.3652 15.9102 51.9629 16.543C52.5605 17.1641 53.2461 18.0723 54.0195 19.2676L57.2188 24.3477C57.4062 24.6758 57.5 24.9746 57.5 25.2441ZM37.9531 11.8145H45.4414C46.6484 11.8145 47.709 11.5742 48.623 11.0938C49.5488 10.6133 50.0117 9.8457 50.0117 8.79102C50.0117 7.73633 49.5488 6.96875 48.623 6.48828C47.709 6.00781 46.6484 5.76758 45.4414 5.76758H37.9531V11.8145ZM60.4355 24.3125V2.42773C60.4355 1.9707 60.5996 1.58398 60.9277 1.26758C61.2559 0.951172 61.6484 0.792969 62.1055 0.792969H82.373C82.8301 0.792969 83.2168 0.957031 83.5332 1.28516C83.8613 1.61328 84.0254 2.00586 84.0254 2.46289V4.11523C84.0254 4.57227 83.8613 4.96484 83.5332 5.29297C83.2168 5.60938 82.8301 5.76758 82.373 5.76758H67.0625V10.8828H80.2461C80.7031 10.8828 81.0898 11.0469 81.4062 11.375C81.7344 11.6914 81.8984 12.0781 81.8984 12.5352V14.1875C81.8984 14.6445 81.7344 15.0371 81.4062 15.3652C81.0898 15.6816 80.7031 15.8398 80.2461 15.8398H67.0625V21.0254H82.3379C82.7832 21.0254 83.1641 21.1836 83.4805 21.5C83.7969 21.8164 83.9551 22.2031 83.9551 22.6602V24.3477C83.9551 24.8047 83.791 25.1973 83.4629 25.5254C83.1348 25.8418 82.7422 26 82.2852 26H62.1055C61.6484 26 61.2559 25.8418 60.9277 25.5254C60.5996 25.1973 60.4355 24.793 60.4355 24.3125ZM85.0977 1.63672C85.0977 1.07422 85.4023 0.792969 86.0117 0.792969H89.3516C90.6758 0.792969 91.6953 1.34961 92.4102 2.46289L98.1055 11.2344L103.783 2.46289C104.51 1.34961 105.529 0.792969 106.842 0.792969H110.199C110.797 0.792969 111.096 1.07422 111.096 1.63672C111.096 1.89453 111.002 2.16992 110.814 2.46289L101.41 17V24.3828C101.41 24.8398 101.246 25.2266 100.918 25.543C100.602 25.8477 100.215 26 99.7578 26H96.4531C95.9961 26 95.6035 25.8477 95.2754 25.543C94.9473 25.2266 94.7832 24.8398 94.7832 24.3828V17L85.3965 2.46289C85.1973 2.16992 85.0977 1.89453 85.0977 1.63672ZM113.979 24.3828V2.49805C113.979 2.01758 114.143 1.61328 114.471 1.28516C114.799 0.957031 115.191 0.792969 115.648 0.792969H118.953C119.41 0.792969 119.797 0.957031 120.113 1.28516C120.441 1.61328 120.605 2.01758 120.605 2.49805V21.0254H135.916C136.373 21.0254 136.76 21.1895 137.076 21.5176C137.404 21.8457 137.568 22.2383 137.568 22.6953V24.3477C137.568 24.8047 137.404 25.1973 137.076 25.5254C136.76 25.8418 136.373 26 135.916 26H115.648C115.191 26 114.799 25.8477 114.471 25.543C114.143 25.2266 113.979 24.8398 113.979 24.3828ZM138.377 24.3828L142.789 7.64844C143.984 3.08984 147.875 0.804688 154.461 0.792969H163.936C164.369 0.792969 164.727 0.957031 165.008 1.28516C165.301 1.61328 165.447 1.99414 165.447 2.42773V24.3828C165.447 24.8398 165.283 25.2266 164.955 25.543C164.627 25.8477 164.234 26 163.777 26H160.473C159.992 26 159.594 25.8477 159.277 25.543C158.973 25.2266 158.82 24.8281 158.82 24.3477V19.918H146.322L145.145 24.3477C145.027 24.8281 144.764 25.2266 144.354 25.543C143.943 25.8477 143.51 26 143.053 26H139.59C139.133 26 138.805 25.8711 138.605 25.6133C138.406 25.3438 138.307 25.1094 138.307 24.9102C138.318 24.7109 138.342 24.5352 138.377 24.3828ZM147.623 14.9434H158.82V5.76758H153.811C152.686 5.76758 151.701 6.08984 150.857 6.73438C150.025 7.36719 149.463 8.22266 149.17 9.30078L147.623 14.9434ZM170.475 24.3477V2.46289C170.475 2.00586 170.633 1.61328 170.949 1.28516C171.266 0.957031 171.652 0.792969 172.109 0.792969H177.277C177.688 0.792969 178.121 0.957031 178.578 1.28516C179.035 1.61328 179.41 2.00586 179.703 2.46289L190.32 18.793V2.42773C190.32 1.9707 190.479 1.58398 190.795 1.26758C191.123 0.951172 191.516 0.792969 191.973 0.792969H194.996C195.453 0.792969 195.84 0.951172 196.156 1.26758C196.484 1.58398 196.648 1.98242 196.648 2.46289V24.3477C196.648 24.8047 196.484 25.1973 196.156 25.5254C195.84 25.8418 195.453 26 194.996 26H189.16C188.703 26 188.234 25.8418 187.754 25.5254C187.273 25.1973 186.893 24.8047 186.611 24.3477L176.891 9.26562V24.3477C176.891 24.8047 176.727 25.1973 176.398 25.5254C176.082 25.8418 175.695 26 175.238 26H172.145C171.688 26 171.295 25.8418 170.967 25.5254C170.639 25.1973 170.475 24.8047 170.475 24.3477ZM201.693 24.3828V2.49805C201.693 2.01758 201.857 1.61328 202.186 1.28516C202.514 0.957031 202.906 0.792969 203.363 0.792969H213.189C218.275 0.792969 221.973 1.8125 224.281 3.85156C226.602 5.87891 227.762 9.06641 227.762 13.4141C227.762 17.75 226.602 20.9316 224.281 22.959C221.973 24.9863 218.275 26 213.189 26H203.363C202.906 26 202.514 25.8477 202.186 25.543C201.857 25.2266 201.693 24.8398 201.693 24.3828ZM208.32 21.0254H212.996C216.148 21.0254 218.293 20.4512 219.43 19.3027C220.566 18.1543 221.135 16.1914 221.135 13.4141C221.135 10.625 220.566 8.65625 219.43 7.50781C218.293 6.34766 216.148 5.76758 212.996 5.76758H208.32V21.0254Z" fill="black"/>
</svg>
